<?xml version="1.0" encoding="UTF-8"?>
<!DOCTYPE svg PUBLIC "-//W3C//DTD SVG 1.1//EN"  >
<svg xmlns="http://www.w3.org/2000/svg" version="1.1" width="279px" height="276px" style="shape-rendering:geometricPrecision; text-rendering:geometricPrecision; image-rendering:optimizeQuality; fill-rule:evenodd; clip-rule:evenodd" xmlns:xlink="http://www.w3.org/1999/xlink">
<g><path style="opacity:0.997"   d="M 205.5,22.5 C 222.195,23.8844 229.362,32.8844 227,49.5C 221.803,61.3485 212.969,65.5152 200.5,62C 187.706,54.9472 184.539,44.7806 191,31.5C 194.768,26.5445 199.601,23.5445 205.5,22.5 Z"/></g>
<g><path style="opacity:0.675"   d="M 115.5,104.5 C 108.804,104.391 102.137,104.724 95.5,105.5C 99.2227,104.003 103.223,103.337 107.5,103.5C 110.355,103.503 113.022,103.836 115.5,104.5 Z"/></g>
<g><path style="opacity:0.999"   d="M 115.5,104.5 C 125.531,106.347 133.698,111.347 140,119.5C 152.337,140.644 149.503,159.477 131.5,176C 108.598,189.26 89.0979,185.426 73,164.5C 63.0376,143.979 66.5376,126.146 83.5,111C 87.1438,108.344 91.1438,106.511 95.5,105.5C 102.137,104.724 108.804,104.391 115.5,104.5 Z"/></g>
<g><path style="opacity:0.516"   d="M 227.5,144.5 C 214.5,144.5 201.5,144.5 188.5,144.5C 188.802,147.059 188.468,149.393 187.5,151.5C 187.5,148.833 187.5,146.167 187.5,143.5C 201.01,143.171 214.344,143.504 227.5,144.5 Z"/></g>
<g><path style="opacity:0.998"   d="M 227.5,144.5 C 226.084,190.515 205.75,225.348 166.5,249C 148.149,258.963 128.649,263.796 108,263.5C 107.167,250.487 107.334,237.487 108.5,224.5C 153.078,219.922 179.412,195.589 187.5,151.5C 188.468,149.393 188.802,147.059 188.5,144.5C 201.5,144.5 214.5,144.5 227.5,144.5 Z"/></g>
</svg>
