<svg aria-hidden="true" style="position: absolute; width: 0; height: 0; overflow: hidden;" version="1.1" xmlns="http://www.w3.org/2000/svg" xmlns:xlink="http://www.w3.org/1999/xlink">
<defs>
<symbol id="icon-icons8-facebook" viewBox="0 0 32 32">
<path d="M16 1.92c-7.776 0-14.080 6.304-14.080 14.080 0 7.059 5.2 12.888 11.976 13.906v-10.174h-3.484v-3.701h3.484v-2.463c0-4.077 1.987-5.868 5.375-5.868 1.623 0 2.481 0.12 2.888 0.175v3.231h-2.312c-1.439 0-1.941 1.364-1.941 2.901v2.023h4.216l-0.572 3.701h-3.644v10.204c6.872-0.932 12.174-6.808 12.174-13.936 0-7.776-6.304-14.080-14.080-14.080z"></path>
</symbol>
<symbol id="icon-icons8-instagram" viewBox="0 0 32 32">
<path d="M10.24 1.92c-4.589 0-8.32 3.731-8.32 8.32v11.52c0 4.589 3.731 8.32 8.32 8.32h11.52c4.589 0 8.32-3.731 8.32-8.32v-11.52c0-4.589-3.731-8.32-8.32-8.32h-11.52zM23.68 7.040c0.704 0 1.28 0.576 1.28 1.28s-0.576 1.28-1.28 1.28c-0.704 0-1.28-0.576-1.28-1.28s0.576-1.28 1.28-1.28zM16 8.96c3.885 0 7.040 3.155 7.040 7.040s-3.155 7.040-7.040 7.040c-3.885 0-7.040-3.155-7.040-7.040s3.155-7.040 7.040-7.040zM16 10.24c-3.174 0-5.76 2.586-5.76 5.76s2.586 5.76 5.76 5.76c3.174 0 5.76-2.586 5.76-5.76s-2.586-5.76-5.76-5.76z"></path>
</symbol>
<symbol id="icon-icons8-linkedin" viewBox="0 0 32 32">
<path d="M26.24 2.56h-20.48c-1.766 0-3.2 1.434-3.2 3.2v20.48c0 1.766 1.434 3.2 3.2 3.2h20.48c1.766 0 3.2-1.434 3.2-3.2v-20.48c0-1.766-1.434-3.2-3.2-3.2zM10.88 12.8v12.16h-3.84v-12.16h3.84zM7.040 9.261c0-0.896 0.768-1.581 1.92-1.581s1.875 0.685 1.92 1.581c0 0.896-0.717 1.619-1.92 1.619-1.152 0-1.92-0.723-1.92-1.619zM24.96 24.96h-3.84c0 0 0-5.926 0-6.4 0-1.28-0.64-2.56-2.24-2.586h-0.051c-1.549 0-2.189 1.318-2.189 2.586 0 0.582 0 6.4 0 6.4h-3.84v-12.16h3.84v1.638c0 0 1.235-1.638 3.718-1.638 2.541 0 4.602 1.747 4.602 5.286v6.874z"></path>
</symbol>
<symbol id="icon-icons8-twitterx" viewBox="0 0 32 32">
<path d="M7.040 2.56c-2.474 0-4.48 2.006-4.48 4.48v17.92c0 2.474 2.006 4.48 4.48 4.48h17.92c2.474 0 4.48-2.006 4.48-4.48v-17.92c0-2.474-2.006-4.48-4.48-4.48h-17.92zM8.375 8.32h5.080l3.607 5.126 4.378-5.126h1.6l-5.255 6.152 6.48 9.207h-5.079l-4.186-5.947-5.080 5.947h-1.6l5.957-6.974-5.902-8.386zM10.825 9.6l9.029 12.8h1.961l-9.029-12.8h-1.961z"></path>
</symbol>
<symbol id="icon-right-arrow-svgrepo-com" viewBox="0 0 32 32">
<path d="M1.455 17.455h25.579l-4.79 4.79c-0.568 0.568-0.568 1.489 0 2.057 0.284 0.284 0.656 0.426 1.029 0.426s0.745-0.142 1.028-0.426l7.273-7.273c0.568-0.568 0.568-1.489 0-2.057l-7.273-7.273c-0.568-0.568-1.489-0.568-2.057 0s-0.568 1.489 0 2.057l4.79 4.79h-25.579c-0.803 0-1.455 0.651-1.455 1.455s0.651 1.455 1.455 1.455z"></path>
</symbol>
<symbol id="icon-search-svgrepo-com" viewBox="0 0 32 32">
<path d="M31.501 28.27l-11.338-11.338c1.3-2.002 1.913-4.394 1.733-6.795-0.197-2.612-1.326-5.071-3.18-6.926-2.072-2.072-4.824-3.212-7.753-3.212-0.014 0-0.028 0-0.043 0-2.944 0.011-5.704 1.173-7.771 3.272-4.225 4.29-4.186 11.232 0.088 15.475 1.855 1.842 4.311 2.962 6.916 3.154 2.395 0.176 4.78-0.438 6.777-1.734l11.338 11.338c0.33 0.33 0.764 0.495 1.197 0.495s0.867-0.165 1.197-0.495l0.84-0.84c0.66-0.66 0.66-1.734 0-2.394zM30.599 29.764l-0.84 0.84c-0.163 0.163-0.429 0.163-0.592 0l-11.713-11.713c-0.123-0.123-0.287-0.187-0.451-0.187-0.13 0-0.261 0.040-0.373 0.121-3.858 2.79-9.114 2.377-12.497-0.983-3.777-3.75-3.812-9.886-0.078-13.676 1.827-1.855 4.266-2.882 6.868-2.892 0.013 0 0.025-0 0.038-0 2.588 0 5.020 1.007 6.851 2.838 3.384 3.384 3.808 8.65 1.008 12.522-0.183 0.254-0.156 0.603 0.066 0.824l11.713 11.713c0.163 0.163 0.163 0.429 0 0.592z"></path>
<path d="M16.545 5.381c-3.079-3.079-8.089-3.079-11.168 0-1.492 1.492-2.313 3.475-2.313 5.584s0.821 4.092 2.313 5.584 3.475 2.313 5.584 2.313c2.109 0 4.092-0.821 5.584-2.313 3.079-3.079 3.079-8.089-0-11.168zM15.643 15.648c-1.251 1.251-2.914 1.94-4.683 1.94s-3.432-0.689-4.683-1.94c-1.251-1.251-1.94-2.914-1.94-4.683s0.689-3.432 1.94-4.683c1.291-1.291 2.987-1.937 4.683-1.937s3.392 0.646 4.683 1.937c2.582 2.582 2.582 6.783 0 9.365z"></path>
<path d="M7.074 9.809c0.1-0.337-0.093-0.692-0.43-0.792s-0.692 0.092-0.792 0.43c-0.556 1.877-0.043 3.903 1.341 5.286 0.124 0.124 0.288 0.187 0.451 0.187s0.326-0.062 0.451-0.187c0.249-0.249 0.249-0.652 0-0.901-1.053-1.053-1.443-2.594-1.020-4.023z"></path>
<path d="M9.015 6.004c-0.685 0.268-1.298 0.67-1.822 1.194-0.249 0.249-0.249 0.652 0 0.901 0.124 0.124 0.288 0.187 0.451 0.187s0.326-0.062 0.451-0.187c0.399-0.399 0.865-0.705 1.385-0.908 0.328-0.128 0.489-0.498 0.361-0.826s-0.498-0.489-0.826-0.361z"></path>
</symbol>
<symbol id="icon-search" viewBox="0 0 32 32">
<path d="M31.008 27.231l-7.58-6.447c-0.784-0.705-1.622-1.029-2.299-0.998 1.789-2.096 2.87-4.815 2.87-7.787 0-6.627-5.373-12-12-12s-12 5.373-12 12 5.373 12 12 12c2.972 0 5.691-1.081 7.787-2.87-0.031 0.677 0.293 1.515 0.998 2.299l6.447 7.58c1.104 1.226 2.907 1.33 4.007 0.23s0.997-2.903-0.23-4.007zM12 20c-4.418 0-8-3.582-8-8s3.582-8 8-8 8 3.582 8 8-3.582 8-8 8z"></path>
</symbol>
</defs>
</svg>
